#Comment line ignore any data following # character 
#Hierarchical Translation and Rotation (.htr) file 
[Header]	
#Header keywords are followed by a single value 
FileType HTR		#Single word string
DataType HTRS		#Translation followed by rotation and scale data
FileVersion 1		#integer
NumSegments 25		#integer
NumFrames 6		#integer
DataFrameRate 30		#integer, data frame rate in this file
EulerRotationOrder ZYX
CalibrationUnits mm
RotationUnits Degrees
GlobalAxisofGravity Y
BoneLengthAxis Y
ScaleFactor 1.00
[SegmentNames&Hierarchy]
#CHILD	PARENT
BN_Tick_Root GLOBAL
BN_Torso BN_Tick_Root
BN_L_Leg_Front01 BN_Torso
BN_L_Leg_Rear01 BN_Torso
BN_MetalTop BN_Torso
BN_Neck BN_Torso
BN_R_Leg_Front01 BN_Torso
BN_R_Leg_Rear01 BN_Torso
BN_Sack BN_Torso
BN_L_Leg_Front02 BN_L_Leg_Front01
BN_L_Leg_Front03 BN_L_Leg_Front02
BN_L_Leg_Rear02 BN_L_Leg_Rear01
BN_L_Leg_Rear03 BN_L_Leg_Rear02
BN_Head BN_Neck
BN_Needle BN_Head
BN_R_Leg_Front02 BN_R_Leg_Front01
BN_R_Leg_Front03 BN_R_Leg_Front02
BN_R_Leg_Rear02 BN_R_Leg_Rear01
BN_R_Leg_Rear03 BN_R_Leg_Rear02
BN_SackDef01 BN_Sack
BN_SackDef02 BN_Sack
BN_SackDef03 BN_Sack
BN_SackDef04 BN_Sack
BN_SackDef05 BN_Sack
BN_SackDef06 BN_Sack
[BasePosition]
#SegmentName Tx, Ty, Tz, Rx, Ry, Rz, BoneLength
BN_Tick_Root 0.000000 0.000000 0.000000 -90.000000 0.000000 0.000000 10.000000 
BN_Torso 0.000000 0.000000 0.000000 0.000000 0.000000 0.000000 10.000000 
BN_L_Leg_Front01 0.000000 0.000000 0.000000 0.000000 0.000000 0.000000 10.000000 
BN_L_Leg_Rear01 0.000000 0.000000 0.000000 0.000000 0.000000 0.000000 10.000000 
BN_MetalTop 0.000000 0.000000 0.000000 0.000000 0.000000 0.000000 10.000000 
BN_Neck 0.000000 0.000000 0.000000 0.000000 0.000000 0.000000 10.000000 
BN_R_Leg_Front01 0.000000 0.000000 0.000000 0.000000 0.000000 0.000000 10.000000 
BN_R_Leg_Rear01 0.000000 0.000000 0.000000 0.000000 0.000000 0.000000 10.000000 
BN_Sack 0.000000 0.000000 0.000000 0.000000 0.000000 0.000000 10.000000 
BN_L_Leg_Front02 0.000000 0.000000 0.000000 0.000000 0.000000 0.000000 10.000000 
BN_L_Leg_Front03 0.000000 0.000000 0.000000 0.000000 0.000000 0.000000 10.000000 
BN_L_Leg_Rear02 0.000000 0.000000 0.000000 0.000000 0.000000 0.000000 10.000000 
BN_L_Leg_Rear03 0.000000 0.000000 0.000000 0.000000 0.000000 0.000000 10.000000 
BN_Head 0.000000 0.000000 0.000000 0.000000 0.000000 0.000000 10.000000 
BN_Needle 0.000000 0.000000 0.000000 0.000000 0.000000 0.000000 10.000000 
BN_R_Leg_Front02 0.000000 0.000000 0.000000 0.000000 0.000000 0.000000 10.000000 
BN_R_Leg_Front03 0.000000 0.000000 0.000000 0.000000 0.000000 0.000000 10.000000 
BN_R_Leg_Rear02 0.000000 0.000000 0.000000 0.000000 0.000000 0.000000 10.000000 
BN_R_Leg_Rear03 0.000000 0.000000 0.000000 0.000000 0.000000 0.000000 10.000000 
BN_SackDef01 0.000000 0.000000 0.000000 0.000000 0.000000 0.000000 10.000000 
BN_SackDef02 0.000000 0.000000 0.000000 0.000000 0.000000 0.000000 10.000000 
BN_SackDef03 0.000000 0.000000 0.000000 0.000000 0.000000 0.000000 10.000000 
BN_SackDef04 0.000000 0.000000 0.000000 0.000000 0.000000 0.000000 10.000000 
BN_SackDef05 0.000000 0.000000 0.000000 0.000000 0.000000 0.000000 10.000000 
BN_SackDef06 0.000000 0.000000 0.000000 0.000000 0.000000 0.000000 10.000000 
#Beginning of Data. Separated by tabs
#Fr	Tx	Ty	Tz	Rx	Ry	Rz	SF
[BN_Tick_Root]
7 0.000000 0.000000 0.000000 0.000000 0.000000 -0.000020 0.000000
8 0.000000 0.000000 0.000000 0.000000 0.000000 -0.000020 0.000000
9 0.000000 0.000000 0.000000 0.000000 0.000000 -0.000020 0.000000
10 0.000000 0.000000 0.000000 0.000000 0.000000 -0.000020 0.000000
11 0.000000 0.000000 0.000000 0.000000 0.000000 -0.000020 0.000000
12 0.000000 0.000000 0.000000 0.000000 0.000000 -0.000020 0.000000
[BN_Torso]
7 20.906052 -91.690575 198.724579 9.063787 -3.478065 4.740609 219.853790
8 20.925211 -83.439217 189.129593 10.502831 -3.590610 5.960425 207.773849
9 16.533529 -22.044165 179.431458 12.046571 -3.557085 5.828743 181.534973
10 8.322372 80.212952 169.689117 13.200964 -3.481747 5.458822 187.877029
11 3.737545 134.122818 165.252747 13.652743 -3.391109 4.889593 212.864670
12 3.521455 127.629158 167.532608 11.888715 -3.266500 3.860815 210.638977
[BN_L_Leg_Front01]
7 -68.477791 10.734189 -26.804373 -40.405090 46.104275 136.341843 74.316254
8 -68.477791 10.734189 -26.804373 -39.282143 46.313614 136.475769 74.316254
9 -68.477791 10.734189 -26.804373 -35.174969 48.720459 146.272507 74.316254
10 -68.477791 10.734189 -26.804373 -27.813990 51.387035 170.920425 74.316254
11 -68.477791 10.734189 -26.804373 -25.610106 50.800484 -171.003357 74.316254
12 -68.477791 10.734189 -26.804373 -28.203480 51.395241 -173.918121 74.316254
[BN_L_Leg_Rear01]
7 -72.133743 -73.994843 -18.268616 74.530632 50.505554 -156.648682 104.939293
8 -72.133743 -73.994843 -18.268616 76.238632 46.845718 -155.063705 104.939293
9 -72.133743 -73.994843 -18.268616 74.737663 37.049965 -141.714081 104.939293
10 -72.133743 -73.994843 -18.268616 72.430695 25.083082 -128.017944 104.939293
11 -72.133743 -73.994843 -18.268616 71.621117 20.507954 -122.822350 104.939293
12 -72.133743 -73.994843 -18.268616 70.428429 23.051094 -122.358795 104.939293
[BN_MetalTop]
7 0.000008 13.737477 26.403606 94.501915 -32.362804 -98.372025 29.763546
8 0.000008 13.737477 26.403606 94.502640 -32.366409 -98.372513 29.763546
9 0.000008 13.737477 26.403606 94.503342 -32.369995 -98.372986 29.763546
10 0.000008 13.737477 26.403606 94.504074 -32.373585 -98.373466 29.763546
11 0.000008 13.737477 26.403606 94.504784 -32.377182 -98.373932 29.763546
12 0.000008 13.737477 26.403606 94.505493 -32.380772 -98.374405 29.763546
[BN_Neck]
7 0.000014 95.233284 10.002091 -89.999672 -65.297531 89.999657 95.757088
8 0.000014 95.233284 10.002091 -89.999672 -65.297531 89.999657 95.757088
9 0.000014 95.233284 10.002091 -89.999672 -65.297531 89.999657 95.757088
10 0.000014 95.233284 10.002091 -89.999672 -65.297531 89.999657 95.757088
11 0.000014 95.233284 10.002091 -89.999672 -65.297531 89.999657 95.757088
12 0.000014 95.233284 10.002091 -89.999672 -65.297531 89.999657 95.757088
[BN_R_Leg_Front01]
7 68.477768 10.734107 -26.804314 45.505451 54.503666 43.922817 74.316193
8 68.477768 10.734107 -26.804314 43.471172 54.871613 40.125359 74.316193
9 68.477768 10.734107 -26.804314 36.420246 58.270531 26.690584 74.316193
10 68.477768 10.734107 -26.804314 21.778614 60.731728 -8.701815 74.316193
11 68.477768 10.734107 -26.804314 18.481606 58.145271 -29.884775 74.316193
12 68.477768 10.734107 -26.804314 21.416351 59.674278 -23.172277 74.316193
[BN_R_Leg_Rear01]
7 72.133751 -73.994873 -18.268644 -104.836838 83.050591 -34.189827 104.939331
8 72.133751 -73.994873 -18.268644 -105.407707 79.818161 -44.253105 104.939331
9 72.133751 -73.994873 -18.268644 -83.309494 62.837898 -58.194660 104.939331
10 72.133751 -73.994873 -18.268644 -75.657402 38.974079 -70.055824 104.939331
11 72.133751 -73.994873 -18.268644 -74.897438 30.861988 -72.541092 104.939331
12 72.133751 -73.994873 -18.268644 -74.536560 34.340092 -70.387360 104.939331
[BN_Sack]
7 -0.000000 -78.024918 33.657791 91.379883 -11.014522 -97.199577 84.974907
8 -0.000000 -78.024918 33.657791 91.379875 -11.014524 -97.199577 84.974907
9 -0.000000 -78.024918 33.657791 91.379875 -11.014523 -97.199577 84.974907
10 -0.000000 -78.024918 33.657791 91.379875 -11.014523 -97.199577 84.974907
11 -0.000000 -78.024918 33.657791 91.379883 -11.014522 -97.199577 84.974907
12 -0.000000 -78.024918 33.657791 91.379875 -11.014524 -97.199577 84.974907
[BN_L_Leg_Front02]
7 142.805023 -0.000015 -0.000104 0.200510 0.163717 -79.917816 142.805023
8 142.805023 -0.000015 -0.000104 0.199718 0.209307 -84.185829 142.805023
9 142.805023 -0.000015 -0.000104 0.144879 0.439116 -106.483414 142.805023
10 142.805023 -0.000015 -0.000104 -0.111779 0.867416 -146.870758 142.805023
11 142.805023 -0.000015 -0.000104 -0.424230 1.097740 -171.138687 142.805023
12 142.805023 -0.000015 -0.000104 -0.380989 1.078361 -167.855072 142.805023
[BN_L_Leg_Front03]
7 124.143021 -0.000045 0.000007 0.353580 -0.444623 84.310265 124.143021
8 124.143021 -0.000045 0.000007 0.352594 -0.447221 89.864937 124.143021
9 124.143021 -0.000045 0.000007 0.351924 -0.405563 115.407372 124.143021
10 124.143021 -0.000045 0.000007 0.351712 -0.251928 146.365570 124.143021
11 124.143021 -0.000045 0.000007 0.352307 -0.169719 157.897110 124.143021
12 124.143021 -0.000045 0.000007 0.352468 -0.181072 156.539917 124.143021
[BN_L_Leg_Rear02]
7 139.939041 0.000075 -0.000022 -0.049227 -0.259192 133.934982 139.939041
8 139.939041 0.000075 -0.000022 -0.063356 -0.277288 136.523865 139.939041
9 139.939041 0.000075 -0.000022 -0.018406 -0.246761 124.124893 139.939041
10 139.939041 0.000075 -0.000022 0.076787 -0.225176 96.679413 139.939041
11 139.939041 0.000075 -0.000022 0.121806 -0.201731 81.904655 139.939041
12 139.939041 0.000075 -0.000022 0.119034 -0.203378 83.472549 139.939041
[BN_L_Leg_Rear03]
7 142.839615 0.000179 -0.000060 0.001119 -0.002064 -146.922485 142.839615
8 142.839615 0.000179 -0.000060 0.001145 -0.002049 -148.420914 142.839615
9 142.839615 0.000179 -0.000060 0.001002 -0.002123 -140.536072 142.839615
10 142.839615 0.000179 -0.000060 0.000520 -0.002289 -115.582909 142.839615
11 142.839615 0.000179 -0.000060 0.000154 -0.002342 -97.528793 142.839615
12 142.839615 0.000179 -0.000060 0.000196 -0.002339 -99.584396 142.839615
[BN_Head]
7 57.062447 -0.000030 0.000000 -0.794272 8.823682 21.693657 57.062447
8 57.062447 -0.000030 0.000000 -1.818475 9.628775 22.375187 57.062447
9 57.062447 -0.000030 0.000000 -2.784123 9.208890 17.517019 57.062447
10 57.062447 -0.000030 0.000000 -4.299680 8.239759 6.772087 57.062447
11 57.062447 -0.000030 0.000000 -5.033391 7.343726 -2.047922 57.062447
12 57.062447 -0.000030 0.000000 -4.481726 6.815879 -7.479383 57.062447
[BN_Needle]
7 33.915245 69.677490 -0.000054 0.000003 0.000030 87.896805 77.493202
8 33.915241 69.677490 -0.000055 0.000003 0.000030 87.896805 77.493195
9 33.915237 69.677490 -0.000056 0.000003 0.000030 87.896805 77.493195
10 33.915237 69.677628 -0.000057 0.000003 0.000030 87.896805 77.493324
11 39.384884 218.616776 -0.000063 0.000003 0.000030 87.896805 222.136139
12 44.854530 367.555786 -0.000069 0.000003 0.000030 87.896805 370.282593
[BN_R_Leg_Front02]
7 142.804947 -0.000060 0.000060 -0.187466 0.277995 91.045738 142.804947
8 142.804947 -0.000060 0.000060 -0.174819 0.339032 96.407021 142.804947
9 142.804947 -0.000060 0.000060 -0.089534 0.576265 119.212822 142.804947
10 142.804947 -0.000060 0.000060 0.288231 1.016836 161.637405 142.804947
11 142.804947 -0.000060 0.000060 0.610583 1.165009 -178.007065 142.804947
12 142.804947 -0.000060 0.000060 0.540632 1.140587 177.990585 142.804947
[BN_R_Leg_Front03]
7 124.143005 -0.000060 -0.000156 -0.353448 -0.441924 -98.352280 124.143005
8 124.143005 -0.000060 -0.000156 -0.353152 -0.435481 -104.612701 124.143005
9 124.143005 -0.000060 -0.000156 -0.352131 -0.357117 -127.195770 124.143005
10 124.143005 -0.000060 -0.000156 -0.354218 -0.198607 -153.818756 124.143005
11 124.143005 -0.000060 -0.000156 -0.355243 -0.135842 -162.049164 124.143005
12 124.143005 -0.000060 -0.000156 -0.354602 -0.146688 -160.565491 124.143005
[BN_R_Leg_Rear02]
7 139.939011 -0.000149 0.000015 0.249652 -0.206765 171.736328 139.939011
8 139.939011 -0.000149 0.000015 0.349291 -0.093993 141.293045 139.939011
9 139.939011 -0.000149 0.000015 0.303274 -0.153433 155.483398 139.939011
10 139.939011 -0.000149 0.000015 0.055787 -0.252731 -136.703049 139.939011
11 139.939011 -0.000149 0.000015 -0.018996 -0.242680 -114.445190 139.939011
12 139.939011 -0.000149 0.000015 -0.010216 -0.245593 -116.602806 139.939011
[BN_R_Leg_Rear03]
7 142.839417 0.000075 0.000119 0.001821 -0.001481 168.216751 142.839417
8 142.839417 0.000075 0.000119 0.001720 -0.001598 175.783661 142.839417
9 142.839417 0.000075 0.000119 0.001767 -0.001545 172.361496 142.839417
10 142.839417 0.000075 0.000119 0.002048 -0.001147 148.525360 142.839417
11 142.839417 0.000075 0.000119 0.002184 -0.000860 133.003677 142.839417
12 142.839417 0.000075 0.000119 0.002170 -0.000895 134.804214 142.839417
[BN_SackDef01]
7 594.835327 -15.640263 102.848640 -128.408218 -44.374973 -11.740845 603.863831
8 594.869080 -15.641423 102.854515 -128.408218 -44.374973 -11.740845 603.898132
9 594.902893 -15.642584 102.860374 -128.408218 -44.374973 -11.740845 603.932373
10 594.936584 -15.643744 102.866241 -128.408218 -44.374973 -11.740845 603.966736
11 594.970398 -15.644906 102.872108 -128.408218 -44.374973 -11.740845 604.001038
12 595.004150 -15.646067 102.877975 -128.408218 -44.374973 -11.740845 604.035278
[BN_SackDef02]
7 232.307236 -209.950989 117.634949 32.077126 -27.375721 -88.781525 334.490723
8 232.328873 -209.985168 117.651596 32.077126 -27.375721 -88.781525 334.533051
9 232.350494 -210.019363 117.668243 32.077126 -27.375721 -88.781525 334.575409
10 232.372131 -210.053543 117.684883 32.077126 -27.375721 -88.781525 334.617737
11 232.393753 -210.087753 117.701530 32.077126 -27.375721 -88.781525 334.660065
12 232.415390 -210.121933 117.718178 32.077126 -27.375721 -88.781525 334.702423
[BN_SackDef03]
7 594.835266 -15.640265 -102.848846 18.144459 44.375008 -11.740894 603.863831
8 594.869019 -15.641423 -102.854698 18.144459 44.375008 -11.740894 603.898071
9 594.902832 -15.642582 -102.860558 18.144459 44.375008 -11.740894 603.932373
10 594.936523 -15.643740 -102.866409 18.144459 44.375008 -11.740894 603.966675
11 594.970337 -15.644898 -102.872269 18.144459 44.375008 -11.740894 604.000977
12 595.004089 -15.646057 -102.878120 18.144459 44.375008 -11.740894 604.035217
[BN_SackDef04]
7 232.307129 -209.950928 -117.634827 146.059982 27.375723 -88.781555 334.490570
8 232.328766 -209.985107 -117.651466 146.059982 27.375723 -88.781555 334.532928
9 232.350403 -210.019302 -117.668114 146.059982 27.375723 -88.781555 334.575256
10 232.372025 -210.053482 -117.684761 146.059982 27.375723 -88.781555 334.617584
11 232.393661 -210.087692 -117.701401 146.059982 27.375723 -88.781555 334.659943
12 232.415298 -210.121872 -117.718048 146.059982 27.375723 -88.781555 334.702271
[BN_SackDef05]
7 287.821716 261.580719 -163.207184 0.155741 51.314110 90.605110 421.784760
8 287.838257 261.601776 -163.216904 0.155741 51.314110 90.605110 421.812897
9 287.854797 261.622833 -163.226639 0.155741 51.314110 90.605110 421.841003
10 287.871338 261.643921 -163.236343 0.155741 51.314110 90.605110 421.869080
11 287.887878 261.665009 -163.246078 0.155741 51.314110 90.605110 421.897247
12 287.904419 261.686096 -163.255814 0.155741 51.314110 90.605110 421.925354
[BN_SackDef06]
7 287.821838 261.580872 163.206863 152.058487 -51.314072 90.605019 421.784821
8 287.838379 261.601959 163.216583 152.058487 -51.314072 90.605019 421.812958
9 287.854919 261.623016 163.226303 152.058487 -51.314072 90.605019 421.841064
10 287.871460 261.644135 163.236038 152.058487 -51.314072 90.605019 421.869171
11 287.888000 261.665192 163.245758 152.058487 -51.314072 90.605019 421.897308
12 287.904541 261.686279 163.255478 152.058487 -51.314072 90.605019 421.925446
